<?xml version="1.0" encoding="iso-8859-1"?>
<!-- Uploaded to: SVG Repo, www.svgrepo.com, Generator: SVG Repo Mixer Tools -->
<svg height="800px" width="800px" version="1.1" id="Capa_1" xmlns="http://www.w3.org/2000/svg" xmlns:xlink="http://www.w3.org/1999/xlink" 
	 viewBox="0 0 512 512" xml:space="preserve">
<g>
	<g>
		<path style="fill:#FFE1B2;" d="M256,33.085C245.078,13.38,224.079,0,200,0c-23.781,0-45.57,13.293-56.594,34.184
			C115.711,41.602,96,66.977,96,96c0,0.059,0,0.113,0,0.172c-9.977,7.512-16,19.301-16,31.828c0,1.316,0.078,2.637,0.234,3.992
			C60.211,145.266,48,167.758,48,192c0,14.07,4.039,27.543,11.719,39.262C57.273,236.512,56,242.207,56,248
			c0,2.738,0.281,5.445,0.828,8.098C36.672,267.308,24,288.539,24,312c0,27.973,18.305,52.34,44.109,60.785
			C65.398,378.828,64,385.324,64,392c0,21.098,13.805,39.508,33.539,45.727C103.891,466.746,129.828,488,160,488
			c4.617,0,9.227-0.512,13.766-1.527C181.992,502,198.141,512,216,512c16.687,0,31.396-8.567,40-21.523V33.085z"/>
	</g>
	<g>
		<g>
			<path style="fill:#FFB980;" d="M264,256c-4.422,0-8-3.582-8-8c0-22.055-17.945-40-40-40c-8.008,0-15.734,2.355-22.336,6.812
				c-3.023,2.043-7.055,1.781-9.797-0.652c-3.156-2.809-8.477-6.16-15.867-6.16c-4.422,0-8-3.582-8-8c0-4.418,3.578-8,8-8
				c7.711,0,15.234,2.293,21.719,6.539C197.773,194.246,206.758,192,216,192c30.875,0,56,25.121,56,56
				C272,252.418,268.422,256,264,256z"/>
		</g>
	</g>
	<g>
		<g>
			<path style="fill:#FFB980;" d="M120,120c18.977,0,36.875,7.312,50.414,20.594c3.141,3.09,8.203,3.047,11.312-0.109
				c3.094-3.152,3.047-8.219-0.109-11.312C165.07,112.941,143.187,104,120,104c-13.046,0-25.395,2.93-36.542,8.046
				C81.253,117.019,80,122.423,80,128c0,1.316,0.078,2.637,0.234,3.992c-0.094,0.062-0.173,0.139-0.267,0.202
				C91.423,124.501,105.193,120,120,120z"/>
		</g>
	</g>
	<g>
		<g>
			<path style="fill:#FFB980;" d="M216,360c0-4.418-3.578-8-8-8s-8,3.582-8,8c0,17.645-14.352,32-32,32
				c-14.211,0-26.82-9.648-30.664-23.465c-0.703-2.512-2.578-4.523-5.039-5.395c-2.453-0.871-5.188-0.492-7.305,1.02
				C114.094,371.906,101.305,376,88,376c-6.948,0-13.625-1.149-19.894-3.207c-2.214,4.939-3.501,10.19-3.916,15.586
				C71.714,390.73,79.711,392,88,392c13.297,0,26.187-3.266,37.773-9.52C133.969,397.894,150.141,408,168,408
				C194.469,408,216,386.469,216,360z"/>
		</g>
	</g>
	<g>
		<path style="fill:#FDC88E;" d="M488,312c0-23.461-12.672-44.691-32.828-55.902c0.547-2.652,0.828-5.359,0.828-8.098
			c0-5.793-1.273-11.488-3.719-16.738C459.961,219.543,464,206.07,464,192c0-24.242-12.211-46.734-32.234-60.008
			c0.156-1.355,0.234-2.676,0.234-3.992c0-12.527-6.023-24.316-16-31.828c0-0.059,0-0.113,0-0.172
			c0-29.023-19.711-54.398-47.406-61.816C357.57,13.293,335.781,0,312,0c-24.08,0-45.078,13.38-56,33.085v457.391
			C264.604,503.433,279.313,512,296,512c17.859,0,34.008-10,42.234-25.527C342.773,487.488,347.383,488,352,488
			c30.172,0,56.109-21.254,62.461-50.273C434.195,431.508,448,413.097,448,392c0-6.676-1.398-13.172-4.109-19.215
			C469.695,364.34,488,339.973,488,312z"/>
	</g>
	<g>
		<path style="fill:#F8AB6B;" d="M272.008,151.199C272,151.465,272,151.734,272,152c0,26.469,21.531,48,48,48
			c26.469,0,48-21.531,48-48c0-4.418-3.578-8-8-8s-8,3.582-8,8c0,17.645-14.352,32-32,32s-32-14.355-32-32
			c0-2.184,0.219-4.359,0.656-6.465c0.492-2.395-0.133-4.883-1.703-6.754c-1.57-1.871-4.016-3.066-6.352-2.859
			c-0.453,0.012-0.891,0.059-0.602,0.078c-13.234,0-24-10.766-24-24v31.813C260.673,147.348,266.061,149.988,272.008,151.199z"/>
	</g>
	<g>
		<path style="fill:#F8AB6B;" d="M296,328c9.242,0,18.219-2.246,26.281-6.539C328.765,325.707,336.289,328,344,328
			c4.422,0,8-3.582,8-8s-3.578-8-8-8c-7.391,0-12.711-3.352-15.867-6.16c-2.742-2.434-6.766-2.695-9.797-0.656
			C311.726,309.644,304,312,296,312c-22.055,0-40-17.945-40-40v39.116C266.174,321.517,280.337,328,296,328z"/>
	</g>
	<g>
		<g>
			<path style="fill:#F8AB6B;" d="M431.765,131.992c0.156-1.355,0.234-2.676,0.234-3.992c0-5.577-1.253-10.981-3.458-15.954
				C417.395,106.93,405.046,104,392,104c-4.422,0-8,3.582-8,8s3.578,8,8,8c14.807,0,28.577,4.501,40.032,12.194
				C431.939,132.131,431.859,132.054,431.765,131.992z"/>
		</g>
	</g>
	<g>
		<g>
			<path style="fill:#F8AB6B;" d="M447.81,388.38c-0.415-5.396-1.702-10.647-3.916-15.586C437.624,374.85,430.948,376,424,376
				c-13.578,0-26.594-4.266-37.641-12.332c-2.07-1.5-4.719-1.93-7.133-1.168c-2.43,0.77-4.344,2.648-5.164,5.059
				C369.101,382.176,355.414,392,340,392c-4.422,0-8,3.582-8,8c0,4.418,3.578,8,8,8c18.875,0,35.961-10.191,45.094-26.156
				C396.976,388.512,410.258,392,424,392C432.288,392,440.285,390.73,447.81,388.38z"/>
		</g>
	</g>
</g>
</svg>