<?xml version="1.0" encoding="utf-8"?>
<!-- Generator: Adobe Illustrator 27.9.0, SVG Export Plug-In . SVG Version: 6.00 Build 0)  -->
<svg version="1.1" id="Layer_2_00000014627036280673960240000008459635720407295422_"
	 xmlns="http://www.w3.org/2000/svg" xmlns:xlink="http://www.w3.org/1999/xlink" x="0px" y="0px" viewBox="0 0 174.5 58"
	 style="enable-background:new 0 0 174.5 58;" xml:space="preserve">
<style type="text/css">
	.st0{fill:#FFFFFF;stroke:#FFFFFF;stroke-width:2;stroke-miterlimit:10;}
	.st1{fill:#FF8A01;}
	.st2{fill:#FFB980;}
	.st3{fill:#FFCC00;}
	.st4{fill:#F8AB6B;}
</style>
<g>
</g>
<path class="st0" d="M171.2,39.3"/>
<g>
	<g>
		<path class="st1" d="M33.5,8.5c-0.9-1.7-2.8-2.9-4.9-2.9c-2.1,0-4,1.2-4.9,3c-2.4,0.6-4.1,2.8-4.1,5.4c0,0,0,0,0,0
			c-0.9,0.7-1.4,1.7-1.4,2.8c0,0.1,0,0.2,0,0.3c-1.7,1.2-2.8,3.1-2.8,5.2c0,1.2,0.4,2.4,1,3.4c-0.2,0.5-0.3,1-0.3,1.5
			c0,0.2,0,0.5,0.1,0.7c-1.8,1-2.9,2.8-2.9,4.9c0,2.4,1.6,4.5,3.8,5.3c-0.2,0.5-0.4,1.1-0.4,1.7c0,1.8,1.2,3.4,2.9,4
			c0.6,2.5,2.8,4.4,5.4,4.4c0.4,0,0.8,0,1.2-0.1c0.7,1.3,2.1,2.2,3.7,2.2c1.4,0,2.7-0.7,3.5-1.9V8.5z"/>
	</g>
	<g>
		<g>
			<path class="st2" d="M34.2,27.9c-0.4,0-0.7-0.3-0.7-0.7c0-1.9-1.6-3.5-3.5-3.5c-0.7,0-1.4,0.2-1.9,0.6c-0.3,0.2-0.6,0.2-0.9-0.1
				c-0.3-0.2-0.7-0.5-1.4-0.5c-0.4,0-0.7-0.3-0.7-0.7c0-0.4,0.3-0.7,0.7-0.7c0.7,0,1.3,0.2,1.9,0.6c0.7-0.4,1.5-0.6,2.3-0.6
				c2.7,0,4.9,2.2,4.9,4.9C34.9,27.6,34.6,27.9,34.2,27.9z"/>
		</g>
	</g>
	<g>
		<g>
			<path class="st2" d="M21.7,16.1c1.6,0,3.2,0.6,4.4,1.8c0.3,0.3,0.7,0.3,1,0c0.3-0.3,0.3-0.7,0-1c-1.4-1.4-3.3-2.2-5.4-2.2
				c-1.1,0-2.2,0.3-3.2,0.7c-0.2,0.4-0.3,0.9-0.3,1.4c0,0.1,0,0.2,0,0.3c0,0,0,0,0,0C19.2,16.5,20.4,16.1,21.7,16.1z"/>
		</g>
	</g>
	<g>
		<g>
			<path class="st2" d="M30,36.9c0-0.4-0.3-0.7-0.7-0.7s-0.7,0.3-0.7,0.7c0,1.5-1.2,2.8-2.8,2.8c-1.2,0-2.3-0.8-2.7-2
				c-0.1-0.2-0.2-0.4-0.4-0.5c-0.2-0.1-0.5,0-0.6,0.1c-0.9,0.7-2.1,1-3.2,1c-0.6,0-1.2-0.1-1.7-0.3c-0.2,0.4-0.3,0.9-0.3,1.4
				c0.7,0.2,1.3,0.3,2.1,0.3c1.2,0,2.3-0.3,3.3-0.8c0.7,1.3,2.1,2.2,3.7,2.2C28.1,41.1,30,39.2,30,36.9z"/>
		</g>
	</g>
	<g>
		<path class="st3" d="M53.6,32.7c0-2-1.1-3.9-2.9-4.9c0-0.2,0.1-0.5,0.1-0.7c0-0.5-0.1-1-0.3-1.5c0.7-1,1-2.2,1-3.4
			c0-2.1-1.1-4.1-2.8-5.2c0-0.1,0-0.2,0-0.3c0-1.1-0.5-2.1-1.4-2.8c0,0,0,0,0,0c0-2.5-1.7-4.7-4.1-5.4c-1-1.8-2.9-3-4.9-3
			c-2.1,0-3.9,1.2-4.9,2.9v39.7c0.7,1.1,2,1.9,3.5,1.9c1.6,0,3-0.9,3.7-2.2C41,48,41.4,48,41.8,48c2.6,0,4.9-1.8,5.4-4.4
			c1.7-0.5,2.9-2.1,2.9-4c0-0.6-0.1-1.1-0.4-1.7C52,37.3,53.6,35.2,53.6,32.7z"/>
	</g>
	<g>
		<path class="st4" d="M34.9,18.8C34.9,18.8,34.9,18.8,34.9,18.8c0,2.4,1.9,4.2,4.2,4.2c2.3,0,4.2-1.9,4.2-4.2
			c0-0.4-0.3-0.7-0.7-0.7c-0.4,0-0.7,0.3-0.7,0.7c0,1.5-1.2,2.8-2.8,2.8s-2.8-1.2-2.8-2.8c0-0.2,0-0.4,0.1-0.6c0-0.2,0-0.4-0.1-0.6
			c-0.1-0.2-0.3-0.3-0.6-0.2c0,0-0.1,0-0.1,0c-1.1,0-2.1-0.9-2.1-2.1v2.8C33.9,18.4,34.3,18.7,34.9,18.8z"/>
	</g>
	<g>
		<path class="st4" d="M37,34.1c0.8,0,1.6-0.2,2.3-0.6c0.6,0.4,1.2,0.6,1.9,0.6c0.4,0,0.7-0.3,0.7-0.7c0-0.4-0.3-0.7-0.7-0.7
			c-0.6,0-1.1-0.3-1.4-0.5c-0.2-0.2-0.6-0.2-0.9-0.1c-0.6,0.4-1.2,0.6-1.9,0.6c-1.9,0-3.5-1.6-3.5-3.5v3.4
			C34.4,33.6,35.6,34.1,37,34.1z"/>
	</g>
	<g>
		<g>
			<path class="st4" d="M48.7,17.1c0-0.1,0-0.2,0-0.3c0-0.5-0.1-1-0.3-1.4c-1-0.4-2-0.7-3.2-0.7c-0.4,0-0.7,0.3-0.7,0.7
				c0,0.4,0.3,0.7,0.7,0.7C46.6,16.1,47.8,16.5,48.7,17.1C48.8,17.1,48.8,17.1,48.7,17.1z"/>
		</g>
	</g>
	<g>
		<g>
			<path class="st4" d="M50.1,39.4c0-0.5-0.1-0.9-0.3-1.4c-0.5,0.2-1.1,0.3-1.7,0.3c-1.2,0-2.3-0.4-3.3-1.1
				c-0.2-0.1-0.4-0.2-0.6-0.1c-0.2,0.1-0.4,0.2-0.4,0.4c-0.4,1.3-1.6,2.1-3,2.1c-0.4,0-0.7,0.3-0.7,0.7s0.3,0.7,0.7,0.7
				c1.6,0,3.1-0.9,3.9-2.3c1,0.6,2.2,0.9,3.4,0.9C48.8,39.7,49.5,39.6,50.1,39.4z"/>
		</g>
	</g>
</g>
<g>
	<g>
		<path class="st3" d="M66.9,50.1h-7.2l4.6-33l12.1,19.2l12.1-19.2l4.6,33h-7.2l-1.7-16l-7.8,13.1l-7.8-13.1L66.9,50.1z"/>
		<path class="st3" d="M104.6,18.7v31.5h-7.1V18.7H104.6z M122.3,18.7l-11.5,14.7l12.1,16.7h-8.3l-12-16.5l11.6-15H122.3z"/>
		<path class="st3" d="M123,18.7h22.5v6.8h-7.8v24.7h-6.9V25.5H123V18.7z"/>
	</g>
</g>
</svg>
