<?xml version="1.0" encoding="utf-8"?>
<!-- Generator: Adobe Illustrator 27.9.0, SVG Export Plug-In . SVG Version: 6.00 Build 0)  -->
<svg version="1.1" id="Layer_2_00000014627036280673960240000008459635720407295422_"
	 xmlns="http://www.w3.org/2000/svg" xmlns:xlink="http://www.w3.org/1999/xlink" x="0px" y="0px" viewBox="0 0 174.5 58"
	 style="enable-background:new 0 0 174.5 58;" xml:space="preserve">
<style type="text/css">
	.st0{fill:#FFCC00;}
	.st1{fill:#FFFFFF;stroke:#FFFFFF;stroke-width:2;stroke-miterlimit:10;}
</style>
<path class="st0" d="M165.2,55.1H8c-1.9,0-3.5-1.6-3.5-3.5V6.4c0-1.9,1.6-3.5,3.5-3.5h157.2c1.9,0,3.5,1.6,3.5,3.5v45.2
	C168.7,53.5,167.1,55.1,165.2,55.1z"/>
<g>
	<g>
		<path d="M15.5,22.4h-4l2.2-13.3L19,16l5.3-6.8l2.2,13.3h-4l-0.6-5.2l-2.9,4l-2.9-4L15.5,22.4z"/>
		<path d="M29.3,17.3h3.9c0-0.3-0.1-0.5-0.2-0.7c-0.1-0.2-0.2-0.3-0.3-0.4c-0.1-0.1-0.3-0.1-0.6-0.1c-0.3,0-0.5,0.1-0.7,0.2
			c-0.2,0.1-0.3,0.3-0.4,0.6c-0.1,0.3-0.1,0.6-0.1,1l0,0.4c0,0.5,0.1,0.9,0.2,1.2c0.1,0.3,0.3,0.5,0.5,0.6c0.2,0.1,0.4,0.2,0.7,0.2
			c0.3,0,0.5,0,0.7-0.1s0.4-0.2,0.5-0.3c0.2-0.1,0.3-0.3,0.4-0.5l3,0.5c-0.3,0.5-0.6,1-1,1.4S35,22,34.4,22.2
			c-0.6,0.2-1.3,0.3-2.1,0.3c-1.1,0-2-0.2-2.7-0.6c-0.7-0.4-1.3-0.9-1.6-1.5c-0.4-0.7-0.5-1.4-0.5-2.2c0-0.2,0-0.3,0-0.5
			c0-0.1,0-0.3,0.1-0.4c0.1-0.7,0.4-1.3,0.7-1.8c0.4-0.5,0.9-0.9,1.5-1.2c0.7-0.3,1.5-0.4,2.4-0.4c1,0,1.9,0.2,2.5,0.5
			c0.7,0.3,1.2,0.8,1.5,1.4c0.3,0.6,0.5,1.4,0.5,2.2c0,0.1,0,0.2,0,0.4c0,0.2,0,0.3,0,0.5h-7.4V17.3z"/>
		<path d="M43.5,14.1v2.8h-6v-2.8H43.5z M42.1,14.5v7.9h-3.1v-7.9H42.1z"/>
		<path d="M47.4,20.2c0.1,0.1,0.2,0.1,0.3,0.2c0.1,0,0.3,0.1,0.4,0.1c0.2,0,0.4,0,0.7-0.1c0.2-0.1,0.4-0.2,0.5-0.5
			c0.1-0.2,0.2-0.5,0.2-0.9l0.3,1.1c0,0.5-0.1,1-0.4,1.4s-0.6,0.7-1,0.9c-0.4,0.2-0.9,0.3-1.5,0.3c-0.6,0-1.1-0.1-1.5-0.3
			c-0.4-0.2-0.8-0.5-1-0.9C44.1,21,44,20.6,44,20s0.1-1,0.4-1.4c0.3-0.4,0.7-0.7,1.2-0.9c0.5-0.2,1.1-0.3,1.8-0.3c0.3,0,0.7,0,1,0.1
			c0.4,0.1,0.7,0.2,1,0.3c0.3,0.1,0.5,0.2,0.6,0.4v1.6c-0.2-0.2-0.5-0.4-0.7-0.5c-0.3-0.1-0.6-0.1-1-0.1c-0.2,0-0.4,0-0.5,0.1
			c-0.2,0.1-0.3,0.2-0.4,0.3c-0.1,0.1-0.1,0.2-0.1,0.4C47.3,20,47.3,20.1,47.4,20.2z M44.7,14.7c0.5-0.2,1.2-0.4,1.8-0.6
			c0.7-0.2,1.4-0.3,2.1-0.3c0.8,0,1.5,0.1,2.1,0.3c0.6,0.2,1.1,0.5,1.4,0.9c0.4,0.4,0.5,0.9,0.5,1.5v5.8h-3.1v-4.9
			c0-0.3-0.1-0.6-0.3-0.8c-0.2-0.2-0.5-0.3-0.9-0.3c-0.4,0-0.7,0-1.1,0.1s-0.7,0.2-0.9,0.3c-0.3,0.1-0.5,0.2-0.6,0.3L44.7,14.7z"/>
		<path d="M57.5,14.1v8.3h-3.1v-8.3H57.5z M64.2,14.1l-3.3,3.4l3.7,4.9h-3.8L57,17.5l3.3-3.4H64.2z"/>
		<path d="M65.8,15.9c0.4-0.6,1-1.1,1.7-1.5c0.7-0.3,1.5-0.5,2.4-0.5c0.9,0,1.7,0.2,2.4,0.5c0.7,0.3,1.3,0.8,1.7,1.5
			c0.4,0.6,0.6,1.4,0.6,2.3c0,0.9-0.2,1.7-0.6,2.3c-0.4,0.6-1,1.1-1.7,1.5s-1.5,0.5-2.4,0.5c-0.9,0-1.7-0.2-2.4-0.5
			c-0.7-0.3-1.3-0.8-1.7-1.5c-0.4-0.6-0.6-1.4-0.6-2.3C65.2,17.3,65.4,16.6,65.8,15.9z M68.8,19.1c0.1,0.2,0.3,0.4,0.5,0.5
			c0.2,0.1,0.4,0.2,0.6,0.2s0.4-0.1,0.6-0.2c0.2-0.1,0.4-0.3,0.5-0.5c0.1-0.2,0.2-0.5,0.2-0.8s-0.1-0.6-0.2-0.8
			c-0.1-0.2-0.3-0.4-0.5-0.5c-0.2-0.1-0.4-0.2-0.6-0.2s-0.4,0.1-0.6,0.2c-0.2,0.1-0.4,0.3-0.5,0.5s-0.2,0.5-0.2,0.8
			S68.7,18.9,68.8,19.1z"/>
		<path d="M81.6,14.1v2.8h-2.3v5.5h-3.2v-8.3H81.6z"/>
		<path d="M85.6,14.1v8.3h-3.1v-8.3H85.6z M83.2,16.8h6.6v2.4h-6.6V16.8z M91.7,14.1v8.3h-3.1v-8.3H91.7z"/>
		<path d="M93.4,23l0.1-3.5l8.8-6l-0.1,3.5L93.4,23z M96.6,20.1L93.4,23v-8.9h3.1V20.1z M102.3,22.4h-3.1v-6l3.1-2.9V22.4z"/>
		<path d="M109.3,14.1v2.8h-6v-2.8H109.3z M107.8,14.5v7.9h-3.1v-7.9H107.8z"/>
		<path d="M110.2,23l0.1-3.5l8.8-6L119,17L110.2,23z M113.3,20.1l-3.1,2.9v-8.9h3.1V20.1z M119,22.4h-3.1v-6l3.1-2.9V22.4z"/>
		<path d="M124.3,14.1v8.3h-3.1v-8.3H124.3z M123.1,17.2h2.1c0.1,0,0.1,0,0.2,0c0.1,0,0.1-0.1,0.1-0.1c0-0.1,0.1-0.1,0.1-0.2
			s0-0.1,0-0.2c0-0.1,0-0.3-0.1-0.4s-0.2-0.2-0.4-0.2h-2.1v-2h2.9c0.5,0,0.9,0.1,1.3,0.2s0.7,0.4,1,0.7c0.2,0.3,0.4,0.8,0.4,1.3
			c0,0.5-0.1,0.9-0.4,1.2c-0.2,0.3-0.6,0.5-1,0.7c-0.4,0.2-0.8,0.2-1.3,0.2h-2.9V17.2z M126.2,18.1c0.5,0,1,0.1,1.5,0.2
			s0.8,0.3,1,0.6s0.4,0.7,0.4,1.3c0,0.6-0.2,1.2-0.6,1.6c-0.4,0.4-1,0.7-1.9,0.7h-3.5v-2h2.3c0.3,0,0.4-0.1,0.5-0.2
			c0.1-0.1,0.1-0.3,0.1-0.4c0-0.1,0-0.1,0-0.2s-0.1-0.1-0.1-0.2c0-0.1-0.1-0.1-0.2-0.1s-0.2-0.1-0.3-0.1h-2.3v-1.1H126.2z"/>
		<path d="M133.6,14.1v8.3h-3.1v-8.3H133.6z M131.2,16.8h6.6v2.4h-6.6V16.8z M139.7,14.1v8.3h-3.1v-8.3H139.7z"/>
		<path d="M144.3,20.2c0.1,0.1,0.2,0.1,0.3,0.2s0.3,0.1,0.4,0.1c0.2,0,0.4,0,0.7-0.1c0.2-0.1,0.4-0.2,0.5-0.5
			c0.1-0.2,0.2-0.5,0.2-0.9l0.3,1.1c0,0.5-0.1,1-0.4,1.4c-0.2,0.4-0.6,0.7-1,0.9c-0.4,0.2-0.9,0.3-1.5,0.3c-0.6,0-1.1-0.1-1.5-0.3
			c-0.4-0.2-0.8-0.5-1-0.9s-0.4-0.8-0.4-1.4s0.1-1,0.4-1.4c0.3-0.4,0.7-0.7,1.2-0.9c0.5-0.2,1.1-0.3,1.8-0.3c0.3,0,0.7,0,1,0.1
			c0.4,0.1,0.7,0.2,1,0.3c0.3,0.1,0.5,0.2,0.6,0.4v1.6c-0.2-0.2-0.5-0.4-0.7-0.5c-0.3-0.1-0.6-0.1-1-0.1c-0.2,0-0.4,0-0.5,0.1
			c-0.2,0.1-0.3,0.2-0.4,0.3c-0.1,0.1-0.1,0.2-0.1,0.4C144.2,20,144.3,20.1,144.3,20.2z M141.6,14.7c0.5-0.2,1.2-0.4,1.8-0.6
			c0.7-0.2,1.4-0.3,2.1-0.3c0.8,0,1.5,0.1,2.1,0.3c0.6,0.2,1.1,0.5,1.4,0.9c0.4,0.4,0.5,0.9,0.5,1.5v5.8h-3.1v-4.9
			c0-0.3-0.1-0.6-0.3-0.8c-0.2-0.2-0.5-0.3-0.9-0.3c-0.4,0-0.7,0-1.1,0.1c-0.3,0.1-0.7,0.2-0.9,0.3c-0.3,0.1-0.5,0.2-0.6,0.3
			L141.6,14.7z"/>
		<path d="M151,22.4l2-3.4h3l-1.7,3.4H151z M157.5,19.6h-2.4c-0.5,0-1.1-0.1-1.6-0.3c-0.5-0.2-1-0.5-1.3-0.9c-0.3-0.4-0.5-1-0.5-1.6
			c0-0.7,0.2-1.2,0.5-1.6c0.3-0.4,0.8-0.7,1.3-0.8c0.5-0.2,1-0.3,1.6-0.3h2.4v2.7h-1.8c-0.2,0-0.3,0-0.4,0c-0.1,0-0.2,0-0.2,0.1
			c-0.1,0-0.1,0.1-0.1,0.2c0,0.1,0,0.2,0.1,0.2c0.1,0,0.1,0.1,0.2,0.1c0.1,0,0.2,0,0.4,0h1.8V19.6z M156.4,22.4v-8.3h3.3v8.3H156.4z
			"/>
		<path d="M17.1,35.7v2.8h-6v-2.8H17.1z M15.7,36.1V44h-3.1v-7.9H15.7z"/>
		<path d="M19.5,38.9h3.9c0-0.3-0.1-0.5-0.2-0.7c-0.1-0.2-0.2-0.3-0.3-0.4c-0.1-0.1-0.3-0.1-0.6-0.1c-0.3,0-0.5,0.1-0.7,0.2
			c-0.2,0.1-0.3,0.3-0.4,0.6c-0.1,0.3-0.1,0.6-0.1,1l0,0.4c0,0.5,0.1,0.9,0.2,1.2c0.1,0.3,0.3,0.5,0.5,0.6c0.2,0.1,0.4,0.2,0.7,0.2
			c0.3,0,0.5,0,0.7-0.1c0.2-0.1,0.4-0.1,0.5-0.3s0.3-0.3,0.4-0.5l3,0.5c-0.3,0.5-0.6,1-1,1.4s-0.9,0.7-1.5,0.9s-1.3,0.3-2.1,0.3
			c-1.1,0-2-0.2-2.7-0.6c-0.7-0.4-1.3-0.9-1.6-1.5c-0.4-0.7-0.5-1.4-0.5-2.2c0-0.2,0-0.3,0-0.5c0-0.1,0-0.3,0.1-0.4
			c0.1-0.7,0.4-1.3,0.7-1.8s0.9-0.9,1.5-1.2c0.7-0.3,1.5-0.4,2.4-0.4c1,0,1.9,0.2,2.5,0.5c0.7,0.3,1.2,0.8,1.5,1.4
			c0.3,0.6,0.5,1.4,0.5,2.2c0,0.1,0,0.2,0,0.4c0,0.2,0,0.3,0,0.5h-7.4V38.9z"/>
		<path d="M28.5,48V35.7h3.3V48H28.5z M37.5,42.4c-0.4,0.7-0.8,1.2-1.4,1.5c-0.6,0.3-1.1,0.5-1.7,0.5c-0.7,0-1.3-0.2-1.8-0.6
			c-0.5-0.4-0.9-0.9-1.1-1.6c-0.2-0.7-0.4-1.5-0.4-2.4c0-0.9,0.1-1.7,0.4-2.4c0.2-0.7,0.6-1.2,1.1-1.6c0.5-0.4,1.1-0.6,1.8-0.6
			c0.6,0,1.2,0.2,1.7,0.5c0.6,0.3,1,0.8,1.4,1.5s0.5,1.5,0.5,2.5C38.1,40.9,37.9,41.7,37.5,42.4z M34.4,39.1
			c-0.1-0.2-0.3-0.4-0.5-0.5c-0.2-0.1-0.4-0.2-0.7-0.2c-0.2,0-0.4,0.1-0.7,0.2c-0.2,0.1-0.4,0.3-0.5,0.5s-0.2,0.5-0.2,0.8
			c0,0.3,0.1,0.6,0.2,0.8s0.3,0.4,0.5,0.5c0.2,0.1,0.4,0.2,0.7,0.2c0.3,0,0.5-0.1,0.7-0.2c0.2-0.1,0.4-0.3,0.5-0.5s0.2-0.5,0.2-0.8
			C34.6,39.6,34.5,39.3,34.4,39.1z"/>
		<path d="M42.4,41.9c0.1,0.1,0.2,0.1,0.3,0.2c0.1,0,0.3,0.1,0.4,0.1c0.2,0,0.4,0,0.7-0.1c0.2-0.1,0.4-0.2,0.5-0.5s0.2-0.5,0.2-0.9
			l0.3,1.1c0,0.5-0.1,1-0.4,1.4s-0.6,0.7-1,0.9c-0.4,0.2-0.9,0.3-1.5,0.3c-0.6,0-1.1-0.1-1.5-0.3c-0.4-0.2-0.8-0.5-1-0.9
			c-0.2-0.4-0.4-0.8-0.4-1.4s0.1-1,0.4-1.4c0.3-0.4,0.7-0.7,1.2-0.9c0.5-0.2,1.1-0.3,1.8-0.3c0.3,0,0.7,0,1,0.1
			c0.4,0.1,0.7,0.2,1,0.3c0.3,0.1,0.5,0.2,0.6,0.4v1.6c-0.2-0.2-0.5-0.4-0.7-0.5c-0.3-0.1-0.6-0.1-1-0.1c-0.2,0-0.4,0-0.5,0.1
			c-0.2,0.1-0.3,0.2-0.4,0.3c-0.1,0.1-0.1,0.2-0.1,0.4S42.3,41.8,42.4,41.9z M39.6,36.4c0.5-0.2,1.2-0.4,1.8-0.6
			c0.7-0.2,1.4-0.3,2.1-0.3c0.8,0,1.5,0.1,2.1,0.3c0.6,0.2,1.1,0.5,1.4,0.9c0.4,0.4,0.5,0.9,0.5,1.5V44h-3.1v-4.9
			c0-0.3-0.1-0.6-0.3-0.8C44,38.1,43.7,38,43.2,38c-0.4,0-0.7,0-1.1,0.1s-0.7,0.2-0.9,0.3c-0.3,0.1-0.5,0.2-0.6,0.3L39.6,36.4z"/>
		<path d="M57.9,44h-3.1v-5.3h-2.3V44h-3.1v-8.3h8.6V44z"/>
		<path d="M59.6,44.7l0.1-3.5l8.8-6l-0.1,3.5L59.6,44.7z M62.8,41.8l-3.1,2.9v-8.9h3.1V41.8z M68.5,44h-3.1v-6l3.1-2.9V44z"/>
		<path d="M69.9,44l2-3.4h3L73.3,44H69.9z M76.4,41.3H74c-0.5,0-1.1-0.1-1.6-0.3c-0.5-0.2-1-0.5-1.3-0.9c-0.3-0.4-0.5-1-0.5-1.6
			c0-0.7,0.2-1.2,0.5-1.6c0.3-0.4,0.8-0.7,1.3-0.8c0.5-0.2,1-0.3,1.6-0.3h2.4v2.7h-1.8c-0.2,0-0.3,0-0.4,0c-0.1,0-0.2,0-0.2,0.1
			c-0.1,0-0.1,0.1-0.1,0.2c0,0.1,0,0.2,0.1,0.2c0.1,0,0.1,0.1,0.2,0.1s0.2,0,0.4,0h1.8V41.3z M75.3,44v-8.3h3.3V44H75.3z"/>
	</g>
</g>
<path class="st1" d="M171.2,39.3"/>
</svg>
