<?xml version="1.0" standalone="no"?>
<!DOCTYPE svg PUBLIC "-//W3C//DTD SVG 20010904//EN"
 "http://www.w3.org/TR/2001/REC-SVG-20010904/DTD/svg10.dtd">
<svg version="1.0" xmlns="http://www.w3.org/2000/svg"
 width="128.000000pt" height="128.000000pt" viewBox="0 0 128.000000 128.000000"
 preserveAspectRatio="xMidYMid meet">
<metadata>
Created by potrace 1.14, written by Peter Selinger 2001-2017
</metadata>
<g transform="translate(0.000000,128.000000) scale(0.100000,-0.100000)"
fill="#000000" stroke="none">
<path d="M40 1260 c0 -13 -7 -20 -20 -20 -13 0 -20 -7 -20 -20 0 -11 7 -20 15
-20 9 0 19 -10 24 -23 12 -32 41 -31 41 1 0 17 4 23 15 18 9 -3 19 3 25 15 8
15 7 21 -4 25 -19 7 -36 -3 -36 -21 0 -14 -24 -27 -34 -18 -14 14 -5 43 13 43
10 0 21 9 24 20 4 16 0 20 -19 20 -17 0 -24 -6 -24 -20z"/>
<path d="M399 1267 c-9 -7 -19 -22 -23 -35 -5 -13 -27 -33 -56 -47 -40 -20
-54 -23 -76 -15 -31 12 -73 -9 -75 -38 -1 -9 -2 -27 -2 -39 -3 -35 -77 -123
-104 -123 -28 0 -63 -33 -63 -59 0 -10 9 -30 20 -44 28 -35 28 -129 0 -164
-25 -33 -25 -58 0 -83 24 -24 63 -26 80 -5 8 9 23 13 39 10 69 -12 87 -19 100
-37 7 -11 23 -23 35 -27 29 -12 60 -95 45 -123 -15 -28 -4 -62 25 -77 20 -11
29 -11 53 1 26 13 37 12 115 -10 68 -19 88 -29 97 -48 6 -13 15 -24 21 -24 6
0 10 -32 10 -78 0 -66 -3 -82 -20 -97 -26 -23 -26 -59 0 -85 24 -24 48 -25 78
-4 28 19 29 65 2 89 -29 26 -29 154 0 180 22 20 27 64 9 82 -8 8 -8 21 1 47 6
20 14 36 18 36 3 0 44 -12 90 -27 67 -22 87 -33 98 -55 8 -16 19 -28 24 -28 6
0 10 -45 10 -108 0 -96 -2 -111 -20 -127 -26 -23 -26 -59 0 -85 24 -24 48 -25
78 -4 28 19 29 65 2 89 -18 16 -20 31 -20 124 0 95 2 107 20 119 12 7 20 23
20 40 0 19 12 37 42 62 23 19 57 48 76 65 26 22 43 29 67 26 56 -4 85 59 45
99 -29 29 -29 170 0 207 11 14 20 34 20 44 0 24 -38 59 -66 59 -28 0 -106 101
-103 133 5 51 -33 82 -81 65 -39 -13 -161 46 -192 92 -29 43 -69 51 -95 21
-16 -19 -29 -21 -134 -21 -103 0 -118 2 -134 20 -20 22 -52 25 -76 7z m48 -42
c7 -20 -2 -29 -21 -22 -9 4 -13 13 -10 22 8 19 23 19 31 0z m351 -8 c2 -10 -3
-17 -12 -17 -10 0 -16 9 -16 21 0 24 23 21 28 -4z m-78 -27 c0 -3 -21 -24 -47
-47 -53 -47 -51 -47 -126 16 l-47 39 110 -1 c60 -1 110 -4 110 -7z m-275 -30
c20 0 51 -15 88 -42 55 -41 57 -43 35 -52 -71 -28 -109 -50 -143 -83 -31 -30
-45 -36 -96 -40 -32 -3 -59 -4 -59 -2 -11 97 -11 122 2 137 8 9 18 25 21 34 8
23 77 59 102 53 11 -3 34 -5 50 -5z m469 -24 c53 -24 76 -40 76 -53 0 -9 -26
-40 -57 -69 l-57 -51 -20 22 c-33 33 -88 63 -145 78 l-52 13 46 40 c40 34 70
47 122 53 7 0 46 -14 87 -33z m-675 -33 c-15 -18 -34 -1 -25 22 5 14 9 15 21
5 12 -10 13 -16 4 -27z m831 -6 c0 -8 -3 -17 -7 -20 -9 -9 -34 13 -27 24 8 14
34 11 34 -4z m-850 -76 c0 -16 3 -41 6 -57 l5 -29 -55 -1 c-31 -1 -56 2 -56 8
0 13 81 108 92 108 4 0 8 -13 8 -29z m852 10 c16 -2 88 -106 88 -127 0 -18
-14 -31 -62 -58 -35 -19 -70 -37 -78 -40 -20 -8 -97 65 -106 100 -6 25 -1 34
51 81 40 37 64 51 79 48 11 -2 24 -4 28 -4z m-992 -127 c0 -17 -26 -19 -36 -3
-7 12 15 31 28 23 4 -3 8 -12 8 -20z m1154 -9 c3 -9 -1 -18 -10 -22 -19 -7
-28 2 -21 22 8 19 23 19 31 0z m-1000 -14 c6 -19 12 -63 21 -144 9 -73 -3 -90
-54 -81 -20 4 -44 8 -54 10 -37 6 -62 54 -63 119 -2 86 19 105 123 111 13 1
24 -5 27 -15z m123 5 c-27 -69 -33 -172 -12 -206 3 -5 -3 -10 -14 -10 -23 0
-27 10 -40 113 -17 120 -17 117 30 117 32 0 40 -3 36 -14z m839 -137 c1 -46 0
-87 -3 -92 -4 -6 -135 97 -141 112 -3 9 120 71 133 67 6 -1 11 -40 11 -87z
m-231 31 c3 -5 1 -10 -4 -10 -6 0 -11 5 -11 10 0 6 2 10 4 10 3 0 8 -4 11 -10z
m149 -122 l40 -34 -57 6 c-32 3 -60 7 -62 8 -3 1 -22 2 -42 2 -21 0 -44 4 -51
9 -21 13 -3 61 31 81 l30 19 36 -29 c20 -15 54 -43 75 -62z m-1038 11 c10 -17
-13 -36 -27 -22 -12 12 -4 33 11 33 5 0 12 -5 16 -11z m230 -40 c10 -17 -13
-36 -27 -22 -12 12 -4 33 11 33 5 0 12 -5 16 -11z m927 -24 c8 -18 -11 -31
-25 -17 -11 11 -3 32 12 32 4 0 10 -7 13 -15z m-205 -10 c79 -5 122 -12 128
-18 2 -1 -33 -32 -77 -67 -59 -48 -87 -64 -105 -62 -14 2 -31 -1 -38 -7 -10
-8 -33 -5 -87 14 -41 14 -76 25 -79 25 -3 0 13 11 35 24 22 14 55 42 73 65 22
27 38 39 52 36 11 -2 55 -6 98 -10z m-603 -56 c49 -36 134 -79 157 -79 17 0
48 -74 35 -86 -3 -3 -45 4 -92 17 -70 18 -89 27 -98 46 -6 13 -21 26 -33 29
-15 4 -29 22 -43 54 -12 27 -21 51 -21 55 0 13 58 -9 95 -36z m247 -104 c-5
-28 -22 -24 -22 6 0 10 6 19 14 19 9 0 12 -8 8 -25z m-282 -19 c0 -8 -4 -17
-8 -20 -13 -8 -35 11 -28 23 10 16 36 14 36 -3z m596 -17 c10 -17 -13 -36 -27
-22 -12 12 -4 33 11 33 5 0 12 -5 16 -11z m-310 -60 c10 -17 -13 -36 -27 -22
-12 12 -4 33 11 33 5 0 12 -5 16 -11z m0 -270 c10 -17 -13 -36 -27 -22 -12 12
-4 33 11 33 5 0 12 -5 16 -11z m310 0 c10 -17 -13 -36 -27 -22 -12 12 -4 33
11 33 5 0 12 -5 16 -11z"/>
<path d="M1197 1176 c3 -15 11 -23 21 -21 10 1 19 -6 22 -18 8 -31 40 -31 40
0 0 18 -4 24 -15 19 -11 -4 -19 3 -25 19 -13 34 -49 35 -43 1z"/>
<path d="M1157 1146 c-7 -18 7 -38 24 -34 8 2 15 -6 17 -19 4 -30 42 -27 42 3
0 16 -5 21 -17 20 -11 -2 -20 5 -23 17 -6 23 -36 32 -43 13z"/>
<path d="M124 508 c-7 -12 10 -31 31 -34 10 -1 14 5 11 19 -3 22 -32 32 -42
15z"/>
<path d="M86 471 c-9 -14 4 -41 19 -41 18 0 28 32 13 42 -17 10 -26 10 -32 -1z"/>
<path d="M172 468 c-6 -6 -8 -17 -4 -26 4 -11 1 -14 -10 -10 -22 9 -40 -6 -32
-26 7 -19 41 -17 36 2 -1 7 9 17 23 22 27 10 33 35 11 43 -7 3 -18 1 -24 -5z"/>
<path d="M1073 310 c-1 -13 4 -20 16 -20 23 0 31 9 24 26 -8 21 -39 17 -40 -6z"/>
<path d="M250 270 c0 -13 -7 -20 -19 -20 -19 0 -35 -23 -24 -34 4 -3 15 -6 25
-6 12 0 18 -7 18 -24 0 -31 32 -29 40 3 3 12 8 22 13 22 23 -2 27 1 27 19 0
13 -7 20 -20 20 -13 0 -20 7 -20 20 0 13 -7 20 -20 20 -13 0 -20 -7 -20 -20z
m40 -38 c0 -24 -8 -32 -26 -25 -22 8 -17 43 6 43 13 0 20 -7 20 -18z"/>
<path d="M1030 271 c0 -27 15 -34 34 -15 19 19 12 34 -15 34 -12 0 -19 -7 -19
-19z"/>
<path d="M1114 275 c4 -10 -2 -19 -18 -24 -31 -12 -30 -41 1 -41 20 0 23 4 18
20 -5 16 -2 20 19 20 19 0 26 5 26 20 0 15 -7 20 -26 20 -19 0 -25 -4 -20 -15z"/>
</g>
</svg>
